<mxfile host="app.diagrams.net" modified="2024-07-18T16:11:19.862Z" agent="Mozilla/5.0 (X11; Linux x86_64) AppleWebKit/537.36 (KHTML, like Gecko) Chrome/126.0.0.0 Safari/537.36" etag="JHXuaQ9BA8BSFaqYNbdT" version="24.7.1" type="device">
  <diagram name="Page-1" id="LcH0wL5u4ItHrE___5kV">
    <mxGraphModel dx="1256" dy="699" grid="1" gridSize="10" guides="1" tooltips="1" connect="1" arrows="1" fold="1" page="1" pageScale="1" pageWidth="827" pageHeight="1169" math="0" shadow="0">
      <root>
        <mxCell id="0" />
        <mxCell id="1" parent="0" />
        <mxCell id="Hoz6jrfTYewvMhfdWuI0-1" value="VPC" style="points=[[0,0],[0.25,0],[0.5,0],[0.75,0],[1,0],[1,0.25],[1,0.5],[1,0.75],[1,1],[0.75,1],[0.5,1],[0.25,1],[0,1],[0,0.75],[0,0.5],[0,0.25]];outlineConnect=0;gradientColor=none;html=1;whiteSpace=wrap;fontSize=12;fontStyle=0;container=1;pointerEvents=0;collapsible=0;recursiveResize=0;shape=mxgraph.aws4.group;grIcon=mxgraph.aws4.group_vpc2;strokeColor=#8C4FFF;fillColor=none;verticalAlign=top;align=left;spacingLeft=30;fontColor=#AAB7B8;dashed=0;" vertex="1" parent="1">
          <mxGeometry x="110" y="130" width="720" height="680" as="geometry" />
        </mxCell>
        <mxCell id="Hoz6jrfTYewvMhfdWuI0-2" value="Public subnet" style="points=[[0,0],[0.25,0],[0.5,0],[0.75,0],[1,0],[1,0.25],[1,0.5],[1,0.75],[1,1],[0.75,1],[0.5,1],[0.25,1],[0,1],[0,0.75],[0,0.5],[0,0.25]];outlineConnect=0;gradientColor=none;html=1;whiteSpace=wrap;fontSize=12;fontStyle=0;container=1;pointerEvents=0;collapsible=0;recursiveResize=0;shape=mxgraph.aws4.group;grIcon=mxgraph.aws4.group_security_group;grStroke=0;strokeColor=#7AA116;fillColor=#F2F6E8;verticalAlign=top;align=left;spacingLeft=30;fontColor=#248814;dashed=0;" vertex="1" parent="Hoz6jrfTYewvMhfdWuI0-1">
          <mxGeometry x="40" y="50" width="600" height="150" as="geometry" />
        </mxCell>
        <mxCell id="Hoz6jrfTYewvMhfdWuI0-5" value="&lt;font style=&quot;font-size: 9px;&quot;&gt;Jump Server&lt;/font&gt;" style="sketch=0;outlineConnect=0;fontColor=#232F3E;gradientColor=none;strokeColor=#ffffff;fillColor=#232F3E;dashed=0;verticalLabelPosition=middle;verticalAlign=bottom;align=center;html=1;whiteSpace=wrap;fontSize=10;fontStyle=1;spacing=3;shape=mxgraph.aws4.productIcon;prIcon=mxgraph.aws4.ec2;" vertex="1" parent="Hoz6jrfTYewvMhfdWuI0-2">
          <mxGeometry x="115" y="50" width="50" height="80" as="geometry" />
        </mxCell>
        <mxCell id="Hoz6jrfTYewvMhfdWuI0-7" value="" style="outlineConnect=0;dashed=0;verticalLabelPosition=bottom;verticalAlign=top;align=center;html=1;shape=mxgraph.aws3.vpc_nat_gateway;fillColor=#F58534;gradientColor=none;" vertex="1" parent="Hoz6jrfTYewvMhfdWuI0-2">
          <mxGeometry x="390" y="-25" width="50" height="50" as="geometry" />
        </mxCell>
        <mxCell id="Hoz6jrfTYewvMhfdWuI0-8" value="&lt;b&gt;Internet Gateway&lt;/b&gt;" style="text;html=1;align=center;verticalAlign=middle;resizable=0;points=[];autosize=1;strokeColor=none;fillColor=none;" vertex="1" parent="Hoz6jrfTYewvMhfdWuI0-2">
          <mxGeometry x="240" y="30" width="110" height="30" as="geometry" />
        </mxCell>
        <mxCell id="Hoz6jrfTYewvMhfdWuI0-9" value="&lt;b&gt;NAT gateway&lt;/b&gt;" style="text;html=1;align=center;verticalAlign=middle;resizable=0;points=[];autosize=1;strokeColor=none;fillColor=none;" vertex="1" parent="Hoz6jrfTYewvMhfdWuI0-2">
          <mxGeometry x="370" y="30" width="90" height="30" as="geometry" />
        </mxCell>
        <mxCell id="Hoz6jrfTYewvMhfdWuI0-3" value="Private subnet" style="points=[[0,0],[0.25,0],[0.5,0],[0.75,0],[1,0],[1,0.25],[1,0.5],[1,0.75],[1,1],[0.75,1],[0.5,1],[0.25,1],[0,1],[0,0.75],[0,0.5],[0,0.25]];outlineConnect=0;gradientColor=none;html=1;whiteSpace=wrap;fontSize=12;fontStyle=0;container=1;pointerEvents=0;collapsible=0;recursiveResize=0;shape=mxgraph.aws4.group;grIcon=mxgraph.aws4.group_security_group;grStroke=0;strokeColor=#00A4A6;fillColor=#E6F6F7;verticalAlign=top;align=left;spacingLeft=30;fontColor=#147EBA;dashed=0;" vertex="1" parent="Hoz6jrfTYewvMhfdWuI0-1">
          <mxGeometry x="40" y="270" width="300" height="360" as="geometry" />
        </mxCell>
        <mxCell id="Hoz6jrfTYewvMhfdWuI0-14" value="" style="aspect=fixed;sketch=0;html=1;dashed=0;whitespace=wrap;verticalLabelPosition=bottom;verticalAlign=top;fillColor=#2875E2;strokeColor=#ffffff;points=[[0.005,0.63,0],[0.1,0.2,0],[0.9,0.2,0],[0.5,0,0],[0.995,0.63,0],[0.72,0.99,0],[0.5,1,0],[0.28,0.99,0]];shape=mxgraph.kubernetes.icon2;prIcon=node" vertex="1" parent="Hoz6jrfTYewvMhfdWuI0-3">
          <mxGeometry x="97" y="200" width="50" height="48" as="geometry" />
        </mxCell>
        <mxCell id="Hoz6jrfTYewvMhfdWuI0-15" value="" style="aspect=fixed;sketch=0;html=1;dashed=0;whitespace=wrap;verticalLabelPosition=bottom;verticalAlign=top;fillColor=#2875E2;strokeColor=#ffffff;points=[[0.005,0.63,0],[0.1,0.2,0],[0.9,0.2,0],[0.5,0,0],[0.995,0.63,0],[0.72,0.99,0],[0.5,1,0],[0.28,0.99,0]];shape=mxgraph.kubernetes.icon2;prIcon=node" vertex="1" parent="Hoz6jrfTYewvMhfdWuI0-3">
          <mxGeometry x="167" y="200" width="50" height="48" as="geometry" />
        </mxCell>
        <mxCell id="Hoz6jrfTYewvMhfdWuI0-4" value="Private subnet" style="points=[[0,0],[0.25,0],[0.5,0],[0.75,0],[1,0],[1,0.25],[1,0.5],[1,0.75],[1,1],[0.75,1],[0.5,1],[0.25,1],[0,1],[0,0.75],[0,0.5],[0,0.25]];outlineConnect=0;gradientColor=none;html=1;whiteSpace=wrap;fontSize=12;fontStyle=0;container=1;pointerEvents=0;collapsible=0;recursiveResize=0;shape=mxgraph.aws4.group;grIcon=mxgraph.aws4.group_security_group;grStroke=0;strokeColor=#00A4A6;fillColor=#E6F6F7;verticalAlign=top;align=left;spacingLeft=30;fontColor=#147EBA;dashed=0;" vertex="1" parent="Hoz6jrfTYewvMhfdWuI0-1">
          <mxGeometry x="380" y="270" width="280" height="360" as="geometry" />
        </mxCell>
        <mxCell id="Hoz6jrfTYewvMhfdWuI0-16" value="" style="aspect=fixed;sketch=0;html=1;dashed=0;whitespace=wrap;verticalLabelPosition=bottom;verticalAlign=top;fillColor=#2875E2;strokeColor=#ffffff;points=[[0.005,0.63,0],[0.1,0.2,0],[0.9,0.2,0],[0.5,0,0],[0.995,0.63,0],[0.72,0.99,0],[0.5,1,0],[0.28,0.99,0]];shape=mxgraph.kubernetes.icon2;prIcon=node" vertex="1" parent="Hoz6jrfTYewvMhfdWuI0-4">
          <mxGeometry x="60" y="202" width="50" height="48" as="geometry" />
        </mxCell>
        <mxCell id="Hoz6jrfTYewvMhfdWuI0-17" value="" style="aspect=fixed;sketch=0;html=1;dashed=0;whitespace=wrap;verticalLabelPosition=bottom;verticalAlign=top;fillColor=#2875E2;strokeColor=#ffffff;points=[[0.005,0.63,0],[0.1,0.2,0],[0.9,0.2,0],[0.5,0,0],[0.995,0.63,0],[0.72,0.99,0],[0.5,1,0],[0.28,0.99,0]];shape=mxgraph.kubernetes.icon2;prIcon=node" vertex="1" parent="Hoz6jrfTYewvMhfdWuI0-4">
          <mxGeometry x="131" y="201" width="50" height="48" as="geometry" />
        </mxCell>
        <mxCell id="Hoz6jrfTYewvMhfdWuI0-6" value="" style="outlineConnect=0;dashed=0;verticalLabelPosition=bottom;verticalAlign=top;align=center;html=1;shape=mxgraph.aws3.internet_gateway;fillColor=#F58534;gradientColor=none;" vertex="1" parent="Hoz6jrfTYewvMhfdWuI0-1">
          <mxGeometry x="308" y="25" width="51" height="52" as="geometry" />
        </mxCell>
        <mxCell id="Hoz6jrfTYewvMhfdWuI0-13" value="&lt;font style=&quot;font-size: 18px;&quot;&gt;&lt;b&gt;EKS Control Plane&lt;/b&gt;&lt;/font&gt;" style="rounded=1;whiteSpace=wrap;html=1;" vertex="1" parent="Hoz6jrfTYewvMhfdWuI0-1">
          <mxGeometry x="90" y="330" width="500" height="60" as="geometry" />
        </mxCell>
        <mxCell id="Hoz6jrfTYewvMhfdWuI0-23" value="" style="rounded=1;arcSize=10;dashed=1;fillColor=none;gradientColor=none;dashPattern=8 3 1 3;strokeWidth=2;" vertex="1" parent="1">
          <mxGeometry x="60" y="90" width="830" height="750" as="geometry" />
        </mxCell>
        <mxCell id="Hoz6jrfTYewvMhfdWuI0-24" value="" style="outlineConnect=0;dashed=0;verticalLabelPosition=bottom;verticalAlign=top;align=center;html=1;shape=mxgraph.aws3.cloud_2;fillColor=#F58534;gradientColor=none;" vertex="1" parent="1">
          <mxGeometry x="110" y="30" width="60" height="55" as="geometry" />
        </mxCell>
      </root>
    </mxGraphModel>
  </diagram>
</mxfile>
